<?xml version="1.0" encoding="UTF-8" standalone="no"?>
<svg
   xmlns:dc="http://purl.org/dc/elements/1.1/"
   xmlns:cc="http://creativecommons.org/ns#"
   xmlns:rdf="http://www.w3.org/1999/02/22-rdf-syntax-ns#"
   xmlns:svg="http://www.w3.org/2000/svg"
   xmlns="http://www.w3.org/2000/svg"
   xmlns:sodipodi="http://sodipodi.sourceforge.net/DTD/sodipodi-0.dtd"
   xmlns:inkscape="http://www.inkscape.org/namespaces/inkscape"
   viewBox="0 0 80 80"
   version="1.1"
   id="svg28"
   sodipodi:docname="if-39-harry-potter-colour-philosophers-stone-2730349_88175.svg"
   width="80"
   height="80"
   inkscape:version="0.92.3 (2405546, 2018-03-11)">
  <metadata
     id="metadata34">
    <rdf:RDF>
      <cc:Work
         rdf:about="">
        <dc:format>image/svg+xml</dc:format>
        <dc:type
           rdf:resource="http://purl.org/dc/dcmitype/StillImage" />
        <dc:title></dc:title>
      </cc:Work>
    </rdf:RDF>
  </metadata>
  <defs
     id="defs32" />
  <sodipodi:namedview
     pagecolor="#ffffff"
     bordercolor="#666666"
     borderopacity="1"
     objecttolerance="10"
     gridtolerance="10"
     guidetolerance="10"
     inkscape:pageopacity="0"
     inkscape:pageshadow="2"
     inkscape:window-width="2400"
     inkscape:window-height="1271"
     id="namedview30"
     showgrid="false"
     inkscape:zoom="3.9333333"
     inkscape:cx="30"
     inkscape:cy="30"
     inkscape:window-x="2391"
     inkscape:window-y="-9"
     inkscape:window-maximized="1"
     inkscape:current-layer="svg28" />
  <g
     id="g863"
     transform="matrix(1.3262736,0,0,1.3262736,4.642879e-5,-26.356242)">
    <polygon
       transform="translate(0,20)"
       points="41.15,33 59,45 44.125,59 "
       id="polygon4"
       style="fill:#af1e1e" />
    <polygon
       transform="translate(0,20)"
       points="41.485,33.225 41.15,33 41.153,33.024 "
       id="polygon6"
       style="fill:#9e1d1d" />
    <polygon
       transform="translate(0,20)"
       points="59,45 54,42 44,56 44.125,59 "
       id="polygon8"
       style="fill:#9e1d1d" />
    <polygon
       transform="translate(0,20)"
       points="1,42.007 24,31 9.003,59 "
       id="polygon10"
       style="fill:#af1e1e" />
    <polygon
       transform="translate(0,20)"
       points="1,42.007 9.003,59 10,57 5.033,40.077 "
       id="polygon12"
       style="fill:#ba2a2a" />
    <polygon
       transform="translate(0,20)"
       points="36,1 35.048,19.22 23.764,30.551 2,41 "
       id="polygon14"
       style="fill:#d32f2e" />
    <polygon
       transform="translate(0,20)"
       points="36,1 2,41 8.504,37.877 35.748,5.826 "
       id="polygon16"
       style="fill:#d34444" />
    <polygon
       transform="translate(0,20)"
       points="35.144,20 40.979,32.731 44,59 9.36,59 24.381,30.825 "
       id="polygon18"
       style="fill:#d32f2e" />
    <path
       d="M 59,65 41.166,53.14182 35.03,39.8794 36.02134,21 C 46.07071,25.72244 58.5618,47.12955 59,65 Z"
       id="path20"
       inkscape:connector-curvature="0"
       style="fill:#d32f2e" />
    <path
       d="M 59,65 C 58.56409,47.22522 46.20508,25.95837 36.184,21.08411 44.05225,29.88794 53.66785,48.45636 54,62 Z"
       id="path22"
       inkscape:connector-curvature="0"
       style="fill:#ba2a2a" />
    <path
       d="m 36.37109,20.07164 a 1.00325,1.00325 0 0 0 -1.13184,0.2793 l -35,41 a 1.00147,1.00147 0 0 0 -0.14453,1.0752 l 8,17 A 1.00026,1.00026 0 0 0 9,80.00036 h 35 a 1.00159,1.00159 0 0 0 0.68262,-0.26855 l 15,-14 A 1.00271,1.00271 0 0 0 60,65.00036 C 60,46.72692 46.68848,24.1986 36.37109,20.07164 Z M 57.94922,63.098 41.78992,52.32512 36.01172,39.806 36.92035,22.54752 C 46.11426,27.52465 57.13757,46.67821 57.94922,63.098 Z M 34.02112,39.56517 23.41486,50.17144 4.82141,59.064 34.846,23.89226 Z m -9.2096,12.03772 9.88135,-9.88135 5.33252,11.55225 2.85291,24.72657 H 10.67072 Z m 17.42889,3.42627 15.153,10.102 -12.62741,11.786 z M 2.32813,62.47393 21.67536,53.22093 9.05762,76.774 Z"
       id="path25"
       inkscape:connector-curvature="0" />
  </g>
</svg>
