<?xml version="1.0" encoding="UTF-8" standalone="no"?>
<!-- Generator: Adobe Illustrator 16.0.0, SVG Export Plug-In . SVG Version: 6.00 Build 0)  -->

<svg
   xmlns:dc="http://purl.org/dc/elements/1.1/"
   xmlns:cc="http://creativecommons.org/ns#"
   xmlns:rdf="http://www.w3.org/1999/02/22-rdf-syntax-ns#"
   xmlns:svg="http://www.w3.org/2000/svg"
   xmlns="http://www.w3.org/2000/svg"
   xmlns:sodipodi="http://sodipodi.sourceforge.net/DTD/sodipodi-0.dtd"
   xmlns:inkscape="http://www.inkscape.org/namespaces/inkscape"
   version="1.1"
   id="Capa_1"
   x="0px"
   y="0px"
   width="80"
   height="80"
   viewBox="0 0 80 80"
   xml:space="preserve"
   sodipodi:docname="receipt-paper_icon-icons.com_56152.svg"
   inkscape:version="0.92.3 (2405546, 2018-03-11)"><metadata
   id="metadata41"><rdf:RDF><cc:Work
       rdf:about=""><dc:format>image/svg+xml</dc:format><dc:type
         rdf:resource="http://purl.org/dc/dcmitype/StillImage" /><dc:title></dc:title></cc:Work></rdf:RDF></metadata><defs
   id="defs39" /><sodipodi:namedview
   pagecolor="#ffffff"
   bordercolor="#666666"
   borderopacity="1"
   objecttolerance="10"
   gridtolerance="10"
   guidetolerance="10"
   inkscape:pageopacity="0"
   inkscape:pageshadow="2"
   inkscape:window-width="2400"
   inkscape:window-height="1271"
   id="namedview37"
   showgrid="false"
   inkscape:zoom="5.2149125"
   inkscape:cx="75.288625"
   inkscape:cy="60.67375"
   inkscape:window-x="2391"
   inkscape:window-y="-9"
   inkscape:window-maximized="1"
   inkscape:current-layer="g4" />
<g
   id="g4"
   transform="matrix(0.31928681,0,0,0.31928681,10.465965,-432)">
	<path
   d="m 33.681768,1353.9038 -16.554079,170.4176 h -50.373537 v 38.7313 c 0,21.3626 18.558668,38.7312 41.3851911,38.7312 H 157.12603 c 22.82653,0 41.3852,-17.3686 41.35312,-38.1411 l 17.2328,-209.739 z M 8.1393431,1586.2913 c -13.7088494,0 -24.8311121,-10.424 -24.8311121,-23.2386 v -23.2388 H 115.74085 v 23.2388 c 0,8.7145 3.07181,16.7633 8.27704,23.2386 z M 181.95715,1563.0527 c 0,12.8146 -11.15433,23.2386 -24.83112,23.2386 -13.70883,0 -24.8311,-10.424 -24.8311,-23.2386 v -38.7313 H 33.746432 L 48.813221,1369.3963 H 197.832 Z M 158.28999,1446.8588 H 74.517563 l 1.51988,-15.4925 h 83.514287 z m 2.52192,-30.9851 H 77.524206 l 1.519869,-15.4924 h 83.061115 z m -71.292204,61.9701 h -18.00929 l 1.48728,-15.4925 h 17.782707 z m 16.586154,-15.4925 h 34.33677 l -1.26121,15.4925 h -34.56336 z"
   id="path2"
   inkscape:connector-curvature="0"
   style="stroke-width:0.50045311" />
</g>
<g
   id="g6"
   transform="translate(0,-432)">
</g>
<g
   id="g8"
   transform="translate(0,-432)">
</g>
<g
   id="g10"
   transform="translate(0,-432)">
</g>
<g
   id="g12"
   transform="translate(0,-432)">
</g>
<g
   id="g14"
   transform="translate(0,-432)">
</g>
<g
   id="g16"
   transform="translate(0,-432)">
</g>
<g
   id="g18"
   transform="translate(0,-432)">
</g>
<g
   id="g20"
   transform="translate(0,-432)">
</g>
<g
   id="g22"
   transform="translate(0,-432)">
</g>
<g
   id="g24"
   transform="translate(0,-432)">
</g>
<g
   id="g26"
   transform="translate(0,-432)">
</g>
<g
   id="g28"
   transform="translate(0,-432)">
</g>
<g
   id="g30"
   transform="translate(0,-432)">
</g>
<g
   id="g32"
   transform="translate(0,-432)">
</g>
<g
   id="g34"
   transform="translate(0,-432)">
</g>
</svg>